# xmcd
#
# Track frame offsets: 
#        150
#        18580
#        37053
#        64370
#        88833
#        105073
#        129203
#        170445
#        191993
#        214323
#        244590
#
# Disc length: 3519 seconds
#
# Revision: 0
# Processed by: cddbd v1.5PL3 Copyright (c) Steve Scherf et al.
# Submitted via: ExactAudioCopy v0.95a4
#
DISCID=980dbd0b
DTITLE=Olympia Brass Band - Basin Street Blues
DYEAR=1990
DGENRE=Blues
TTITLE0=That Sweet Old Bye and Bye
TTITLE1=Marie
TTITLE2=Bill Bailey
TTITLE3=Lord, Lord, Lord
TTITLE4=Muskrat Ramble
TTITLE5=Darktown Strutters Ball
TTITLE6=A Closer Walk With Thee
TTITLE7=Back Home in Indiana
TTITLE8=Basin Street Blues
TTITLE9=When the Saints Go Marchin' In
TTITLE10=China Boy
EXTD=
EXTT0=
EXTT1=
EXTT2=
EXTT3=
EXTT4=
EXTT5=
EXTT6=
EXTT7=
EXTT8=
EXTT9=
EXTT10=
PLAYORDER=
